<svg version="1.1" id="Layer_1" xmlns="http://www.w3.org/2000/svg" xmlns:xlink="http://www.w3.org/1999/xlink" x="0px" y="0px" viewBox="0 0 500 500" style="width: 188px;" xml:space="preserve" data-imageid="chart-7-25" imageName="Chart 7" class="illustrations_image">
<style type="text/css">
	.st0_chart-7-25{fill:#FFFFFF;}
	.st1_chart-7-25{fill:#093F68;}
	.st2_chart-7-25{fill:#68E1FD;}
	.st3_chart-7-25{fill:#F36132;}
	.st4_chart-7-25{fill:#DFEAEF;}
	.st5_chart-7-25{fill:#FFBC0E;}
	.st6_chart-7-25{fill:#70CC40;}
</style>
<g id="board_chart-7-25">
	<path class="st0_chart-7-25" d="M419.5,172.1v178.6c0,12.1-9.9,22-22,22H114.3c-12.1,0-22-9.8-22-22V172.1c0-12.2,9.8-22,22-22h283.2&#10;&#9;&#9;C409.6,150.1,419.5,160,419.5,172.1z"/>
	<path class="st1_chart-7-25" d="M397.5,374.4H114.3c-13.1,0-23.8-10.6-23.8-23.8V172.1c0-13.1,10.7-23.7,23.8-23.8h283.2&#10;&#9;&#9;c13.1,0,23.8,10.6,23.8,23.8v178.6C421.3,363.8,410.6,374.4,397.5,374.4z M114.3,152c-11.1,0-20.2,9-20.2,20.1v178.5&#10;&#9;&#9;c0,11.1,9,20.1,20.2,20.1h283.2c11.1,0,20.1-9,20.2-20.1V172.1c0-11.1-9-20.1-20.2-20.1H114.3z"/>
	<rect x="121.8" y="286.5" class="st2_chart-7-25 targetColor" width="32.3" height="55" style="fill: rgb(104, 225, 253);"/>
	<path class="st1_chart-7-25" d="M154.1,343.3h-32.3c-1,0-1.8-0.8-1.8-1.8v-55c0-1,0.8-1.8,1.8-1.8h32.3c1,0,1.8,0.8,1.8,1.8v55&#10;&#9;&#9;C155.9,342.5,155.1,343.3,154.1,343.3C154.1,343.3,154.1,343.3,154.1,343.3z M123.6,339.7h28.6v-51.4h-28.7L123.6,339.7z"/>
	<rect x="180.8" y="265.2" class="st2_chart-7-25 targetColor" width="32.3" height="76.2" style="fill: rgb(104, 225, 253);"/>
	<path class="st1_chart-7-25" d="M213.1,343.3h-32.2c-1,0-1.8-0.8-1.8-1.8v-76.2c0-1,0.8-1.8,1.8-1.8h32.2c1,0,1.8,0.8,1.8,1.8v76.2&#10;&#9;&#9;C214.9,342.5,214.1,343.3,213.1,343.3z M182.6,339.7h28.6v-72.6h-28.6V339.7z"/>
	<rect x="239.8" y="226.4" class="st2_chart-7-25 targetColor" width="32.3" height="115.1" style="fill: rgb(104, 225, 253);"/>
	<path class="st1_chart-7-25" d="M272,343.3h-32.2c-1,0-1.8-0.8-1.8-1.8V226.4c0-1,0.8-1.8,1.8-1.8H272c1,0,1.8,0.8,1.8,1.8v115.1&#10;&#9;&#9;C273.8,342.5,273,343.3,272,343.3z M241.6,339.7h28.7V228.2h-28.6L241.6,339.7z"/>
	<rect x="298.8" y="288.8" class="st2_chart-7-25 targetColor" width="32.3" height="52.6" style="fill: rgb(104, 225, 253);"/>
	<path class="st1_chart-7-25" d="M331,343.3h-32.2c-1,0-1.8-0.8-1.8-1.8v-52.7c0-1,0.8-1.8,1.8-1.8c0,0,0,0,0,0H331c1,0,1.8,0.8,1.8,1.8&#10;&#9;&#9;c0,0,0,0,0,0v52.6C332.8,342.5,332,343.3,331,343.3L331,343.3z M300.5,339.7h28.6v-49.1h-28.6L300.5,339.7z"/>
	<rect x="357.8" y="226.4" class="st2_chart-7-25 targetColor" width="32.3" height="115.1" style="fill: rgb(104, 225, 253);"/>
	<path class="st1_chart-7-25" d="M390,343.3h-32.2c-1,0-1.8-0.8-1.8-1.8V226.4c0-1,0.8-1.8,1.8-1.8H390c1,0,1.8,0.8,1.8,1.8v115.1&#10;&#9;&#9;C391.8,342.5,391,343.3,390,343.3z M359.5,339.7h28.7V228.2h-28.7V339.7z"/>
	<path class="st1_chart-7-25" d="M314.9,306.7c-0.5,0-1-0.2-1.3-0.6l-58-61.1l-57.7,37.2c-0.1,0.1-0.2,0.1-0.3,0.1l-59,23.6&#10;&#9;&#9;c-0.9,0.4-2-0.1-2.3-1s0.1-2,1-2.3l0,0l58.8-23.5l58.8-37.9c0.7-0.5,1.7-0.4,2.3,0.3l57.7,60.8l57.7-60.8c0.7-0.7,1.8-0.7,2.5-0.1&#10;&#9;&#9;c0.7,0.7,0.7,1.8,0.1,2.6l0,0l-59,62.1C315.8,306.5,315.4,306.7,314.9,306.7z"/>
	<circle class="st3_chart-7-25" cx="137.9" cy="304.4" r="8.9"/>
	<path class="st1_chart-7-25" d="M138,315.1c-5.9,0-10.7-4.8-10.7-10.7c0-5.9,4.8-10.7,10.7-10.7c5.9,0,10.7,4.8,10.7,10.7&#10;&#9;&#9;C148.7,310.3,143.9,315.1,138,315.1z M138,297.2c-3.9,0-7.1,3.2-7.1,7.1c0,3.9,3.2,7.1,7.1,7.1s7.1-3.2,7.1-7.1c0,0,0,0,0,0&#10;&#9;&#9;C145.1,300.4,141.9,297.2,138,297.2z"/>
	<circle class="st3_chart-7-25" cx="196.9" cy="280.8" r="8.9"/>
	<path class="st1_chart-7-25" d="M196.9,291.5c-5.9,0-10.7-4.8-10.7-10.7c0-5.9,4.8-10.7,10.7-10.7s10.7,4.8,10.7,10.7c0,0,0,0,0,0&#10;&#9;&#9;C207.7,286.7,202.9,291.5,196.9,291.5z M196.9,273.6c-3.9,0-7.1,3.2-7.1,7.1c0,3.9,3.2,7.1,7.1,7.1s7.1-3.2,7.1-7.1l0,0&#10;&#9;&#9;C204,276.8,200.9,273.6,196.9,273.6z"/>
	
		<ellipse transform="matrix(0.1602 -0.9871 0.9871 0.1602 -24.7372 456.5049)" class="st3_chart-7-25" cx="255.9" cy="242.8" rx="8.9" ry="8.9"/>
	<path class="st1_chart-7-25" d="M255.9,253.5c-5.9,0-10.7-4.8-10.7-10.7c0-5.9,4.8-10.7,10.7-10.7c5.9,0,10.7,4.8,10.7,10.7&#10;&#9;&#9;C266.6,248.7,261.8,253.5,255.9,253.5z M255.9,235.7c-3.9,0-7.1,3.2-7.1,7.1c0,3.9,3.2,7.1,7.1,7.1c3.9,0,7.1-3.2,7.1-7.1&#10;&#9;&#9;c0,0,0,0,0,0C263,238.9,259.8,235.7,255.9,235.7z"/>
	<circle class="st3_chart-7-25" cx="314.9" cy="304.9" r="8.9"/>
	<path class="st1_chart-7-25" d="M314.9,315.7c-5.9,0-10.7-4.8-10.7-10.7s4.8-10.7,10.7-10.7s10.7,4.8,10.7,10.7c0,0,0,0,0,0&#10;&#9;&#9;C325.6,310.9,320.8,315.6,314.9,315.7z M314.9,297.8c-3.9,0-7.1,3.2-7.1,7.1c0,3.9,3.2,7.1,7.1,7.1c3.9,0,7.1-3.2,7.1-7.1&#10;&#9;&#9;c0,0,0,0,0,0C322,301,318.8,297.8,314.9,297.8z"/>
	<circle class="st3_chart-7-25" cx="373.9" cy="242.8" r="8.9"/>
	<path class="st1_chart-7-25" d="M373.9,253.5c-5.9,0-10.7-4.8-10.7-10.7s4.8-10.7,10.7-10.7c5.9,0,10.7,4.8,10.7,10.7c0,0,0,0,0,0&#10;&#9;&#9;C384.6,248.7,379.8,253.5,373.9,253.5z M373.9,235.7c-3.9,0-7.1,3.2-7.1,7.1c0,3.9,3.2,7.1,7.1,7.1c3.9,0,7.1-3.2,7.1-7.1&#10;&#9;&#9;c0,0,0,0,0,0C381,238.9,377.8,235.7,373.9,235.7z"/>
	<path class="st2_chart-7-25 targetColor" d="M419.5,172.1v6.2H92.4v-6.2c0-12.2,9.8-22,22-22h283.1C409.6,150.1,419.5,160,419.5,172.1z" style="fill: rgb(104, 225, 253);"/>
	<path class="st1_chart-7-25" d="M419.5,180.1H92.4c-1,0-1.8-0.8-1.8-1.8l0,0v-6.2c0-13.1,10.7-23.7,23.8-23.8h283.2&#10;&#9;&#9;c13.1,0,23.8,10.6,23.8,23.8v6.2C421.3,179.3,420.5,180.1,419.5,180.1z M94.2,176.5h323.5v-4.4c0-11.1-9-20.1-20.2-20.1H114.3&#10;&#9;&#9;c-11.1,0-20.2,9-20.2,20.1V176.5z"/>
	<path class="st4_chart-7-25" d="M394.1,206.5h-46.2c-1,0.1-1.9-0.7-1.9-1.7c-0.1-1,0.7-1.9,1.7-1.9c0.1,0,0.2,0,0.3,0h46.2&#10;&#9;&#9;c1,0.1,1.7,0.9,1.7,1.9C395.7,205.7,395,206.4,394.1,206.5z"/>
	<path class="st5_chart-7-25" d="M183.8,211.2h-53.4c-1,0.1-1.9-0.7-1.9-1.7s0.7-1.9,1.7-1.9c0.1,0,0.2,0,0.3,0h53.3c1-0.1,1.9,0.7,1.9,1.7&#10;&#9;&#9;s-0.7,1.9-1.7,1.9C184,211.2,183.9,211.2,183.8,211.2L183.8,211.2z"/>
	<path class="st5_chart-7-25" d="M205,231.5h-74.5c-1,0.1-1.9-0.7-1.9-1.7s0.7-1.9,1.7-1.9c0.1,0,0.2,0,0.3,0H205c1-0.1,1.9,0.7,1.9,1.7&#10;&#9;&#9;s-0.7,1.9-1.7,1.9C205.2,231.5,205.1,231.5,205,231.5z"/>
	<path class="st3_chart-7-25" d="M215.7,211.2h-20.9c-1-0.1-1.7-0.9-1.7-1.9c0.1-0.9,0.8-1.6,1.7-1.7h20.9c1,0.1,1.7,0.9,1.7,1.9&#10;&#9;&#9;C217.3,210.4,216.6,211.2,215.7,211.2L215.7,211.2z"/>
</g>
<g id="graph_chart-7-25">
	<path class="st0_chart-7-25" d="M339.2,129.2h94.7c4,0,7.3,3.3,7.3,7.3v65.7c0,4-3.3,7.3-7.3,7.3h-94.7c-4,0-7.3-3.3-7.3-7.3v-65.7&#10;&#9;&#9;C331.9,132.4,335.2,129.2,339.2,129.2z"/>
	<path class="st1_chart-7-25" d="M432.3,211.2h-91.6c-5.9,0-10.6-4.8-10.6-10.6V138c0-5.9,4.8-10.6,10.6-10.6h91.6c5.9,0,10.6,4.8,10.6,10.6&#10;&#9;&#9;v62.6C442.9,206.4,438.1,211.2,432.3,211.2z M340.7,131c-3.9,0-7,3.1-7,7v62.6c0,3.9,3.1,7,7,7h91.6c3.9,0,7-3.1,7-7V138&#10;&#9;&#9;c0-3.9-3.1-7-7-7H340.7z"/>
	<path class="st2_chart-7-25 targetColor" d="M422,195h-70.4c-1,0-1.8-0.8-1.8-1.8v-51.4c0.1-1,0.9-1.7,1.9-1.7c0.9,0.1,1.6,0.8,1.7,1.7v49.6H422&#10;&#9;&#9;c1,0.1,1.7,0.9,1.7,1.9C423.6,194.2,422.9,194.9,422,195L422,195z" style="fill: rgb(104, 225, 253);"/>
	<path class="st2_chart-7-25 targetColor" d="M359.8,185.1c-0.3,0-0.6-0.1-0.9-0.2c-0.9-0.5-1.2-1.6-0.7-2.4c0,0,0,0,0,0c1.2-2.2,12-21.8,22.2-20.8&#10;&#9;&#9;c5.2,0.5,7.5,3.1,9.5,5.5s3.7,4.2,8.3,4.4s12.2-5.3,21.1-15.2c0.7-0.7,1.8-0.8,2.6-0.1c0.7,0.7,0.8,1.8,0.1,2.6l0,0&#10;&#9;&#9;c-6.9,7.6-16.7,16.6-24,16.4c-6.1-0.3-8.6-3.1-10.9-5.7c-1.9-2.2-3.4-3.9-7.2-4.2c-5.9-0.5-14.6,11.3-18.7,18.9&#10;&#9;&#9;C361,184.7,360.4,185.1,359.8,185.1z" style="fill: rgb(104, 225, 253);"/>
</g>
<g id="chart_chart-7-25">
	<path class="st0_chart-7-25" d="M62.2,190.2h77.1c1.9,0,3.4,1.5,3.4,3.4v72.1c0,1.9-1.5,3.4-3.4,3.4H62.2c-1.9,0-3.4-1.5-3.4-3.4v-72.1&#10;&#9;&#9;C58.8,191.7,60.3,190.2,62.2,190.2z"/>
	<path class="st1_chart-7-25" d="M136.6,270.9H64.9c-4.4,0-7.9-3.6-7.9-7.9v-66.7c0-4.4,3.6-7.9,7.9-7.9h71.7c4.4,0,7.9,3.6,7.9,7.9V263&#10;&#9;&#9;C144.5,267.4,141,270.9,136.6,270.9z M64.9,192c-2.4,0-4.3,1.9-4.3,4.3V263c0,2.4,1.9,4.3,4.3,4.3h71.7c2.4,0,4.3-1.9,4.3-4.3&#10;&#9;&#9;v-66.7c0-2.4-1.9-4.3-4.3-4.3H64.9z"/>
	<path class="st6_chart-7-25" d="M127.9,229.6c0,15-12.1,27.2-27.1,27.2s-27.2-12.1-27.2-27.2c0-15,12.1-27.2,27.1-27.2c0,0,0,0,0,0&#10;&#9;&#9;C115.7,202.5,127.9,214.7,127.9,229.6z"/>
	<path class="st1_chart-7-25" d="M100.8,258.6c-16,0-28.9-13-28.9-28.9s13-28.9,28.9-28.9s28.9,13,28.9,28.9c0,4.8-1.2,9.5-3.5,13.7&#10;&#9;&#9;C121.2,252.8,111.4,258.6,100.8,258.6z M100.8,204.3c-14,0-25.4,11.3-25.4,25.3c0,14,11.3,25.4,25.3,25.4c14,0,25.4-11.3,25.4-25.3&#10;&#9;&#9;c0,0,0-0.1,0-0.1C126.1,215.7,114.7,204.3,100.8,204.3z"/>
	<path class="st0_chart-7-25" d="M127.9,229.6c0,4.5-1.1,9-3.3,12.9l-23.9-12.9v-27.1C115.8,202.5,127.9,214.7,127.9,229.6z"/>
	<path class="st1_chart-7-25" d="M124.6,244.4c-0.3,0-0.6-0.1-0.9-0.2l-23.9-12.9c-0.6-0.3-1-0.9-1-1.6v-27.2c0-1,0.8-1.8,1.8-1.8&#10;&#9;&#9;c16,0,29,13,28.9,29.1c0,4.8-1.2,9.5-3.5,13.7c-0.2,0.4-0.6,0.7-1.1,0.9C125,244.4,124.8,244.4,124.6,244.4z M102.6,228.6&#10;&#9;&#9;l21.3,11.6c5.8-12.8,0.1-27.8-12.7-33.6c-2.7-1.2-5.6-2-8.6-2.2V228.6z"/>
</g>
</svg>